<mxfile host="app.diagrams.net" modified="2023-09-28T07:29:36.246Z" agent="Mozilla/5.0 (Windows NT 10.0; Win64; x64) AppleWebKit/537.36 (KHTML, like Gecko) Chrome/117.0.0.0 Safari/537.36" etag="qALA8EcPe0gJP0VRbD-N" version="21.8.2" type="github">
  <diagram name="Page-1" id="2YBvvXClWsGukQMizWep">
    <mxGraphModel dx="1198" dy="1260" grid="1" gridSize="10" guides="1" tooltips="1" connect="1" arrows="1" fold="1" page="1" pageScale="1" pageWidth="850" pageHeight="1100" math="0" shadow="0">
      <root>
        <mxCell id="0" />
        <mxCell id="1" parent="0" />
        <mxCell id="mo36W_z8H2rWPJ4jXxeI-32" value="" style="edgeStyle=orthogonalEdgeStyle;rounded=0;orthogonalLoop=1;jettySize=auto;html=1;entryX=0;entryY=0.5;entryDx=0;entryDy=0;" edge="1" parent="1" source="mo36W_z8H2rWPJ4jXxeI-1" target="mo36W_z8H2rWPJ4jXxeI-12">
          <mxGeometry relative="1" as="geometry">
            <mxPoint x="210" y="400" as="targetPoint" />
            <Array as="points">
              <mxPoint x="150" y="400" />
              <mxPoint x="150" y="760" />
            </Array>
          </mxGeometry>
        </mxCell>
        <mxCell id="mo36W_z8H2rWPJ4jXxeI-1" value="pg_isready" style="rounded=0;whiteSpace=wrap;html=1;" vertex="1" parent="1">
          <mxGeometry x="10" y="370" width="120" height="60" as="geometry" />
        </mxCell>
        <mxCell id="mo36W_z8H2rWPJ4jXxeI-56" value="" style="edgeStyle=orthogonalEdgeStyle;rounded=0;orthogonalLoop=1;jettySize=auto;html=1;entryX=0;entryY=0.5;entryDx=0;entryDy=0;" edge="1" parent="1" source="mo36W_z8H2rWPJ4jXxeI-10" target="mo36W_z8H2rWPJ4jXxeI-49">
          <mxGeometry relative="1" as="geometry">
            <mxPoint x="320" y="320" as="targetPoint" />
            <Array as="points">
              <mxPoint x="320" y="320" />
            </Array>
          </mxGeometry>
        </mxCell>
        <mxCell id="mo36W_z8H2rWPJ4jXxeI-10" value="pg_controlData" style="rounded=0;whiteSpace=wrap;html=1;" vertex="1" parent="1">
          <mxGeometry x="260" y="530" width="120" height="60" as="geometry" />
        </mxCell>
        <mxCell id="mo36W_z8H2rWPJ4jXxeI-37" value="" style="edgeStyle=orthogonalEdgeStyle;rounded=0;orthogonalLoop=1;jettySize=auto;html=1;entryX=0;entryY=0.5;entryDx=0;entryDy=0;exitX=0.5;exitY=1;exitDx=0;exitDy=0;" edge="1" parent="1" source="mo36W_z8H2rWPJ4jXxeI-12" target="mo36W_z8H2rWPJ4jXxeI-17">
          <mxGeometry relative="1" as="geometry">
            <mxPoint x="390" y="760" as="targetPoint" />
          </mxGeometry>
        </mxCell>
        <mxCell id="mo36W_z8H2rWPJ4jXxeI-59" value="" style="edgeStyle=orthogonalEdgeStyle;rounded=0;orthogonalLoop=1;jettySize=auto;html=1;entryX=0.5;entryY=1;entryDx=0;entryDy=0;" edge="1" parent="1" source="mo36W_z8H2rWPJ4jXxeI-12" target="mo36W_z8H2rWPJ4jXxeI-49">
          <mxGeometry relative="1" as="geometry" />
        </mxCell>
        <mxCell id="mo36W_z8H2rWPJ4jXxeI-12" value="pg_controlData" style="rounded=0;whiteSpace=wrap;html=1;" vertex="1" parent="1">
          <mxGeometry x="260" y="730" width="120" height="60" as="geometry" />
        </mxCell>
        <mxCell id="mo36W_z8H2rWPJ4jXxeI-28" value="" style="edgeStyle=orthogonalEdgeStyle;rounded=0;orthogonalLoop=1;jettySize=auto;html=1;" edge="1" parent="1" source="mo36W_z8H2rWPJ4jXxeI-17" target="mo36W_z8H2rWPJ4jXxeI-27">
          <mxGeometry relative="1" as="geometry" />
        </mxCell>
        <mxCell id="mo36W_z8H2rWPJ4jXxeI-60" value="" style="edgeStyle=orthogonalEdgeStyle;rounded=0;orthogonalLoop=1;jettySize=auto;html=1;entryX=0.5;entryY=1;entryDx=0;entryDy=0;" edge="1" parent="1" source="mo36W_z8H2rWPJ4jXxeI-17" target="mo36W_z8H2rWPJ4jXxeI-49">
          <mxGeometry relative="1" as="geometry">
            <Array as="points">
              <mxPoint x="510" y="760" />
              <mxPoint x="575" y="760" />
            </Array>
          </mxGeometry>
        </mxCell>
        <mxCell id="mo36W_z8H2rWPJ4jXxeI-17" value="Test connection" style="whiteSpace=wrap;html=1;rounded=0;" vertex="1" parent="1">
          <mxGeometry x="450" y="830" width="120" height="60" as="geometry" />
        </mxCell>
        <mxCell id="mo36W_z8H2rWPJ4jXxeI-25" value="Show port error Message" style="whiteSpace=wrap;html=1;rounded=0;" vertex="1" parent="1">
          <mxGeometry x="690" y="170" width="120" height="60" as="geometry" />
        </mxCell>
        <mxCell id="mo36W_z8H2rWPJ4jXxeI-27" value="Continue" style="whiteSpace=wrap;html=1;rounded=0;" vertex="1" parent="1">
          <mxGeometry x="450" y="960" width="120" height="60" as="geometry" />
        </mxCell>
        <mxCell id="mo36W_z8H2rWPJ4jXxeI-33" value="Failed" style="text;html=1;strokeColor=none;fillColor=none;align=center;verticalAlign=middle;whiteSpace=wrap;rounded=0;" vertex="1" parent="1">
          <mxGeometry x="505" y="780" width="60" height="30" as="geometry" />
        </mxCell>
        <mxCell id="mo36W_z8H2rWPJ4jXxeI-34" value="Success" style="text;html=1;strokeColor=none;fillColor=none;align=center;verticalAlign=middle;whiteSpace=wrap;rounded=0;" vertex="1" parent="1">
          <mxGeometry x="510" y="900" width="60" height="30" as="geometry" />
        </mxCell>
        <mxCell id="mo36W_z8H2rWPJ4jXxeI-39" value="Any other status" style="text;html=1;strokeColor=none;fillColor=none;align=center;verticalAlign=middle;whiteSpace=wrap;rounded=0;" vertex="1" parent="1">
          <mxGeometry x="460" y="720" width="45" height="30" as="geometry" />
        </mxCell>
        <mxCell id="mo36W_z8H2rWPJ4jXxeI-40" value="IN PRODUCTION" style="text;html=1;strokeColor=none;fillColor=none;align=center;verticalAlign=middle;whiteSpace=wrap;rounded=0;" vertex="1" parent="1">
          <mxGeometry x="350" y="800" width="60" height="30" as="geometry" />
        </mxCell>
        <mxCell id="mo36W_z8H2rWPJ4jXxeI-44" value="" style="endArrow=classic;html=1;rounded=0;exitX=1;exitY=0.5;exitDx=0;exitDy=0;entryX=0;entryY=0.5;entryDx=0;entryDy=0;" edge="1" parent="1" source="mo36W_z8H2rWPJ4jXxeI-1" target="mo36W_z8H2rWPJ4jXxeI-10">
          <mxGeometry width="50" height="50" relative="1" as="geometry">
            <mxPoint x="460" y="640" as="sourcePoint" />
            <mxPoint x="510" y="590" as="targetPoint" />
            <Array as="points">
              <mxPoint x="150" y="400" />
              <mxPoint x="150" y="560" />
            </Array>
          </mxGeometry>
        </mxCell>
        <mxCell id="mo36W_z8H2rWPJ4jXxeI-46" value="&#xa;&lt;span style=&quot;color: rgb(0, 0, 0); font-family: Helvetica; font-size: 12px; font-style: normal; font-variant-ligatures: normal; font-variant-caps: normal; font-weight: 400; letter-spacing: normal; orphans: 2; text-align: center; text-indent: 0px; text-transform: none; widows: 2; word-spacing: 0px; -webkit-text-stroke-width: 0px; background-color: rgb(251, 251, 251); text-decoration-thickness: initial; text-decoration-style: initial; text-decoration-color: initial; float: none; display: inline !important;&quot;&gt;ACCEPTING CONNECTIONS&lt;/span&gt;&#xa;&#xa;" style="text;html=1;strokeColor=none;fillColor=none;align=center;verticalAlign=middle;whiteSpace=wrap;rounded=0;" vertex="1" parent="1">
          <mxGeometry x="170" y="730" width="60" height="30" as="geometry" />
        </mxCell>
        <mxCell id="mo36W_z8H2rWPJ4jXxeI-47" value="&#xa;&lt;span style=&quot;color: rgb(0, 0, 0); font-family: Helvetica; font-size: 12px; font-style: normal; font-variant-ligatures: normal; font-variant-caps: normal; font-weight: 400; letter-spacing: normal; orphans: 2; text-align: center; text-indent: 0px; text-transform: none; widows: 2; word-spacing: 0px; -webkit-text-stroke-width: 0px; background-color: rgb(251, 251, 251); text-decoration-thickness: initial; text-decoration-style: initial; text-decoration-color: initial; float: none; display: inline !important;&quot;&gt;REJECTING CONNECTIONS&lt;/span&gt;&#xa;&#xa;" style="text;html=1;strokeColor=none;fillColor=none;align=center;verticalAlign=middle;whiteSpace=wrap;rounded=0;" vertex="1" parent="1">
          <mxGeometry x="180" y="530" width="60" height="30" as="geometry" />
        </mxCell>
        <mxCell id="mo36W_z8H2rWPJ4jXxeI-48" value="Show recovery error message" style="whiteSpace=wrap;html=1;rounded=0;" vertex="1" parent="1">
          <mxGeometry x="690" y="410" width="120" height="60" as="geometry" />
        </mxCell>
        <mxCell id="mo36W_z8H2rWPJ4jXxeI-52" value="" style="edgeStyle=orthogonalEdgeStyle;rounded=0;orthogonalLoop=1;jettySize=auto;html=1;" edge="1" parent="1" source="mo36W_z8H2rWPJ4jXxeI-49" target="mo36W_z8H2rWPJ4jXxeI-48">
          <mxGeometry relative="1" as="geometry" />
        </mxCell>
        <mxCell id="mo36W_z8H2rWPJ4jXxeI-49" value="Show error message" style="whiteSpace=wrap;html=1;rounded=0;" vertex="1" parent="1">
          <mxGeometry x="515" y="290" width="120" height="60" as="geometry" />
        </mxCell>
        <mxCell id="mo36W_z8H2rWPJ4jXxeI-53" value="" style="endArrow=classic;html=1;rounded=0;exitX=1;exitY=0.5;exitDx=0;exitDy=0;entryX=0.5;entryY=1;entryDx=0;entryDy=0;" edge="1" parent="1" source="mo36W_z8H2rWPJ4jXxeI-49" target="mo36W_z8H2rWPJ4jXxeI-25">
          <mxGeometry width="50" height="50" relative="1" as="geometry">
            <mxPoint x="460" y="640" as="sourcePoint" />
            <mxPoint x="510" y="590" as="targetPoint" />
            <Array as="points">
              <mxPoint x="660" y="320" />
              <mxPoint x="750" y="320" />
            </Array>
          </mxGeometry>
        </mxCell>
        <mxCell id="mo36W_z8H2rWPJ4jXxeI-54" value="" style="endArrow=classic;html=1;rounded=0;exitX=1;exitY=0.5;exitDx=0;exitDy=0;entryX=0;entryY=0.5;entryDx=0;entryDy=0;" edge="1" parent="1" source="mo36W_z8H2rWPJ4jXxeI-10" target="mo36W_z8H2rWPJ4jXxeI-48">
          <mxGeometry width="50" height="50" relative="1" as="geometry">
            <mxPoint x="460" y="640" as="sourcePoint" />
            <mxPoint x="510" y="590" as="targetPoint" />
            <Array as="points">
              <mxPoint x="480" y="560" />
              <mxPoint x="480" y="440" />
            </Array>
          </mxGeometry>
        </mxCell>
        <mxCell id="mo36W_z8H2rWPJ4jXxeI-57" value="STARTUP OR RECOVERY" style="text;html=1;strokeColor=none;fillColor=none;align=center;verticalAlign=middle;whiteSpace=wrap;rounded=0;" vertex="1" parent="1">
          <mxGeometry x="400" y="520" width="60" height="30" as="geometry" />
        </mxCell>
        <mxCell id="mo36W_z8H2rWPJ4jXxeI-58" value="Any other status" style="text;html=1;strokeColor=none;fillColor=none;align=center;verticalAlign=middle;whiteSpace=wrap;rounded=0;" vertex="1" parent="1">
          <mxGeometry x="250" y="400" width="60" height="30" as="geometry" />
        </mxCell>
        <mxCell id="mo36W_z8H2rWPJ4jXxeI-61" value="" style="endArrow=classic;html=1;rounded=0;exitX=1;exitY=0.5;exitDx=0;exitDy=0;" edge="1" parent="1" source="mo36W_z8H2rWPJ4jXxeI-1">
          <mxGeometry width="50" height="50" relative="1" as="geometry">
            <mxPoint x="460" y="640" as="sourcePoint" />
            <mxPoint x="510" y="320" as="targetPoint" />
            <Array as="points">
              <mxPoint x="150" y="400" />
              <mxPoint x="150" y="320" />
            </Array>
          </mxGeometry>
        </mxCell>
        <mxCell id="mo36W_z8H2rWPJ4jXxeI-63" value="NO RESPONSE" style="text;html=1;strokeColor=none;fillColor=none;align=center;verticalAlign=middle;whiteSpace=wrap;rounded=0;" vertex="1" parent="1">
          <mxGeometry x="200" y="270" width="60" height="30" as="geometry" />
        </mxCell>
        <mxCell id="mo36W_z8H2rWPJ4jXxeI-64" value="" style="endArrow=classic;html=1;rounded=0;exitX=1;exitY=0.5;exitDx=0;exitDy=0;" edge="1" parent="1" source="mo36W_z8H2rWPJ4jXxeI-1">
          <mxGeometry width="50" height="50" relative="1" as="geometry">
            <mxPoint x="460" y="640" as="sourcePoint" />
            <mxPoint x="440" y="200" as="targetPoint" />
            <Array as="points">
              <mxPoint x="150" y="400" />
              <mxPoint x="150" y="200" />
              <mxPoint x="320" y="200" />
            </Array>
          </mxGeometry>
        </mxCell>
        <mxCell id="mo36W_z8H2rWPJ4jXxeI-65" value="Any other status" style="text;html=1;strokeColor=none;fillColor=none;align=center;verticalAlign=middle;whiteSpace=wrap;rounded=0;" vertex="1" parent="1">
          <mxGeometry x="240" y="160" width="60" height="30" as="geometry" />
        </mxCell>
        <mxCell id="mo36W_z8H2rWPJ4jXxeI-67" value="?" style="text;html=1;strokeColor=none;fillColor=none;align=center;verticalAlign=middle;whiteSpace=wrap;rounded=0;fontSize=31;" vertex="1" parent="1">
          <mxGeometry x="425" y="185" width="60" height="30" as="geometry" />
        </mxCell>
      </root>
    </mxGraphModel>
  </diagram>
</mxfile>
